<svg xmlns="http://www.w3.org/2000/svg" viewBox="0 0 1600 900" preserveAspectRatio="xMidYMid slice">
  <defs>
    <linearGradient id="bg" x1="0%" y1="0%" x2="100%" y2="100%">
      <stop offset="0%" stop-color="#1a1240"/>
      <stop offset="55%" stop-color="#2c1e78"/>
      <stop offset="100%" stop-color="#5B3DF5"/>
    </linearGradient>
    <radialGradient id="glow" cx="50%" cy="35%" r="60%">
      <stop offset="0%" stop-color="#8f7bff" stop-opacity="0.55"/>
      <stop offset="100%" stop-color="#8f7bff" stop-opacity="0"/>
    </radialGradient>
  </defs>
  <rect width="1600" height="900" fill="url(#bg)"/>
  <rect width="1600" height="900" fill="url(#glow)"/>
  <g stroke="#ffffff" stroke-opacity="0.18" stroke-width="1.5" fill="none">
    <path d="M120 180 L360 120 L560 260 L820 140 L1080 240 L1320 130 L1480 220"/>
    <path d="M80 420 L340 380 L600 480 L860 400 L1120 500 L1400 420 L1540 480"/>
    <path d="M60 680 L320 640 L580 720 L840 660 L1100 740 L1360 660 L1520 700"/>
    <path d="M360 120 L340 380"/>
    <path d="M560 260 L600 480"/>
    <path d="M820 140 L860 400"/>
    <path d="M1080 240 L1120 500"/>
    <path d="M1320 130 L1400 420"/>
    <path d="M340 380 L320 640"/>
    <path d="M600 480 L580 720"/>
    <path d="M860 400 L840 660"/>
    <path d="M1120 500 L1100 740"/>
    <path d="M1400 420 L1360 660"/>
  </g>
  <g fill="#ffffff" fill-opacity="0.9">
    <circle cx="120" cy="180" r="4"/>
    <circle cx="360" cy="120" r="5"/>
    <circle cx="560" cy="260" r="4"/>
    <circle cx="820" cy="140" r="6"/>
    <circle cx="1080" cy="240" r="4"/>
    <circle cx="1320" cy="130" r="5"/>
    <circle cx="1480" cy="220" r="4"/>
    <circle cx="80" cy="420" r="4"/>
    <circle cx="340" cy="380" r="5"/>
    <circle cx="600" cy="480" r="6"/>
    <circle cx="860" cy="400" r="4"/>
    <circle cx="1120" cy="500" r="5"/>
    <circle cx="1400" cy="420" r="4"/>
    <circle cx="1540" cy="480" r="4"/>
    <circle cx="60" cy="680" r="4"/>
    <circle cx="320" cy="640" r="5"/>
    <circle cx="580" cy="720" r="4"/>
    <circle cx="840" cy="660" r="6"/>
    <circle cx="1100" cy="740" r="4"/>
    <circle cx="1360" cy="660" r="5"/>
    <circle cx="1520" cy="700" r="4"/>
  </g>
</svg>
