<svg xmlns="http://www.w3.org/2000/svg" viewBox="0 0 1600 900" preserveAspectRatio="xMidYMid slice">
  <defs>
    <linearGradient id="bg" x1="0%" y1="0%" x2="100%" y2="100%">
      <stop offset="0%" stop-color="#120b2e"/>
      <stop offset="42%" stop-color="#26185f"/>
      <stop offset="75%" stop-color="#4a2fb0"/>
      <stop offset="100%" stop-color="#7c5cf0"/>
    </linearGradient>

    <radialGradient id="bloomWarm" cx="50%" cy="50%" r="50%">
      <stop offset="0%" stop-color="#f5a524" stop-opacity="0.45"/>
      <stop offset="100%" stop-color="#f5a524" stop-opacity="0"/>
    </radialGradient>
    <radialGradient id="bloomCool" cx="50%" cy="50%" r="50%">
      <stop offset="0%" stop-color="#5b3df5" stop-opacity="0.55"/>
      <stop offset="100%" stop-color="#5b3df5" stop-opacity="0"/>
    </radialGradient>
    <radialGradient id="core" cx="50%" cy="50%" r="50%">
      <stop offset="0%" stop-color="#f5f0ff" stop-opacity="0.95"/>
      <stop offset="35%" stop-color="#d8c8ff" stop-opacity="0.55"/>
      <stop offset="100%" stop-color="#d8c8ff" stop-opacity="0"/>
    </radialGradient>

    <linearGradient id="lineFaint" x1="0%" y1="0%" x2="100%" y2="0%">
      <stop offset="0%" stop-color="#ffffff" stop-opacity="0.05"/>
      <stop offset="50%" stop-color="#ffffff" stop-opacity="0.16"/>
      <stop offset="100%" stop-color="#ffffff" stop-opacity="0.05"/>
    </linearGradient>
    <linearGradient id="lineBright" x1="0%" y1="0%" x2="100%" y2="0%">
      <stop offset="0%" stop-color="#e4d9ff" stop-opacity="0.15"/>
      <stop offset="50%" stop-color="#ffffff" stop-opacity="0.85"/>
      <stop offset="100%" stop-color="#e4d9ff" stop-opacity="0.15"/>
    </linearGradient>

    <filter id="blurLarge" x="-50%" y="-50%" width="200%" height="200%">
      <feGaussianBlur stdDeviation="60"/>
    </filter>
    <filter id="blurSoft" x="-50%" y="-50%" width="200%" height="200%">
      <feGaussianBlur stdDeviation="14"/>
    </filter>
    <filter id="glowNode" x="-200%" y="-200%" width="500%" height="500%">
      <feGaussianBlur stdDeviation="5" result="blur"/>
      <feMerge>
        <feMergeNode in="blur"/>
        <feMergeNode in="SourceGraphic"/>
      </feMerge>
    </filter>
  </defs>

  <rect width="1600" height="900" fill="url(#bg)"/>

  <!-- Ambient light blooms -->
  <circle cx="1250" cy="180" r="420" fill="url(#bloomWarm)" filter="url(#blurLarge)"/>
  <circle cx="260" cy="700" r="380" fill="url(#bloomCool)" filter="url(#blurLarge)"/>
  <circle cx="780" cy="480" r="340" fill="url(#core)" filter="url(#blurLarge)"/>

  <!-- Neural mesh: faint background connections -->
  <g fill="none" stroke="url(#lineFaint)" stroke-width="1.5">
    <path d="M140 280 C300 280 300 160 460 160"/>
    <path d="M140 450 C300 450 300 340 460 340"/>
    <path d="M140 620 C300 620 300 740 460 740"/>
    <path d="M460 160 C620 160 620 100 780 100"/>
    <path d="M460 340 C620 340 620 250 780 250"/>
    <path d="M460 740 C620 740 620 630 780 630"/>
    <path d="M460 740 C620 740 620 780 780 780"/>
    <path d="M780 100 C940 100 940 160 1100 160"/>
    <path d="M780 250 C940 250 940 160 1100 160"/>
    <path d="M780 630 C940 630 940 740 1100 740"/>
    <path d="M780 780 C940 780 940 740 1100 740"/>
    <path d="M1100 160 C1260 160 1260 280 1420 280"/>
    <path d="M1100 740 C1260 740 1260 620 1420 620"/>
  </g>

  <!-- Neural mesh: highlighted signal path through the core -->
  <g fill="none" stroke="url(#lineBright)" stroke-width="2.5">
    <path d="M140 450 C300 450 300 450 460 450"/>
    <path d="M460 450 C620 450 620 500 780 500"/>
    <path d="M780 500 C940 500 940 450 1100 450"/>
    <path d="M1100 450 C1260 450 1260 450 1420 450"/>
  </g>

  <!-- Nodes -->
  <g filter="url(#glowNode)">
    <!-- col 1 -->
    <circle cx="140" cy="280" r="5" fill="#c9baff"/>
    <circle cx="140" cy="450" r="7" fill="#ffffff"/>
    <circle cx="140" cy="620" r="5" fill="#c9baff"/>

    <!-- col 2 -->
    <circle cx="460" cy="160" r="4" fill="#b3a1ff"/>
    <circle cx="460" cy="340" r="5" fill="#c9baff"/>
    <circle cx="460" cy="450" r="8" fill="#ffffff"/>
    <circle cx="460" cy="560" r="4" fill="#b3a1ff"/>
    <circle cx="460" cy="740" r="5" fill="#c9baff"/>

    <!-- col 3 -->
    <circle cx="780" cy="100" r="4" fill="#a68bfc"/>
    <circle cx="780" cy="250" r="5" fill="#c9baff"/>
    <circle cx="780" cy="380" r="4" fill="#b3a1ff"/>
    <circle cx="780" cy="500" r="9" fill="#ffffff"/>
    <circle cx="780" cy="630" r="5" fill="#c9baff"/>
    <circle cx="780" cy="780" r="4" fill="#a68bfc"/>

    <!-- col 4 -->
    <circle cx="1100" cy="160" r="4" fill="#b3a1ff"/>
    <circle cx="1100" cy="320" r="5" fill="#c9baff"/>
    <circle cx="1100" cy="450" r="8" fill="#ffffff"/>
    <circle cx="1100" cy="580" r="4" fill="#b3a1ff"/>
    <circle cx="1100" cy="740" r="5" fill="#c9baff"/>

    <!-- col 5 -->
    <circle cx="1420" cy="280" r="5" fill="#c9baff"/>
    <circle cx="1420" cy="450" r="7" fill="#ffffff"/>
    <circle cx="1420" cy="620" r="5" fill="#c9baff"/>
  </g>

  <!-- Fine particle texture -->
  <g fill="#ffffff" opacity="0.35">
    <circle cx="90" cy="120" r="1.6"/>
    <circle cx="320" cy="60" r="1.4"/>
    <circle cx="620" cy="820" r="1.6"/>
    <circle cx="960" cy="60" r="1.4"/>
    <circle cx="1340" cy="740" r="1.6"/>
    <circle cx="1540" cy="140" r="1.4"/>
    <circle cx="70" cy="800" r="1.4"/>
    <circle cx="1230" cy="820" r="1.6"/>
    <circle cx="1550" cy="500" r="1.4"/>
    <circle cx="220" cy="480" r="1.4"/>
  </g>

  <!-- Soft vignette for text legibility -->
  <rect width="1600" height="900" fill="url(#bg)" opacity="0" />
</svg>
